<?xml version="1.0" standalone="no"?>
<!DOCTYPE svg PUBLIC "-//W3C//DTD SVG 20010904//EN"
 "http://www.w3.org/TR/2001/REC-SVG-20010904/DTD/svg10.dtd">
<svg version="1.0" xmlns="http://www.w3.org/2000/svg"
 width="1112.000000pt" height="1112.000000pt" viewBox="0 0 1112.000000 1112.000000"
 preserveAspectRatio="xMidYMid meet">
<metadata>
Created by potrace 1.14, written by Peter Selinger 2001-2017
</metadata>
<g transform="translate(0.000000,1112.000000) scale(0.100000,-0.100000)"
fill="#000000" stroke="none">
<path d="M0 6436 c1 -1862 -1 -1781 61 -1980 136 -436 489 -782 919 -901 190
-53 160 -52 1959 -53 922 0 1696 -3 1721 -6 25 -4 56 -9 70 -11 14 -3 40 -7
57 -10 64 -10 199 -58 278 -98 131 -65 222 -133 360 -268 l130 -127 116 113
c64 62 151 139 195 171 175 130 381 208 604 230 41 4 833 8 1760 9 927 1 1695
4 1706 7 12 4 39 9 60 12 67 11 196 48 269 78 393 162 681 482 799 889 13 47
27 109 31 138 4 30 9 63 11 75 4 16 8 3268 5 3407 l-1 26 -5555 0 -5555 0 0
-1701z m10785 -161 c0 -847 -3 -1560 -7 -1585 -39 -247 -186 -491 -393 -649
-123 -95 -263 -159 -420 -193 -87 -20 -139 -20 -1810 -23 -946 -2 -1735 -6
-1753 -9 -18 -3 -52 -8 -75 -11 -129 -19 -350 -93 -467 -158 -78 -43 -197
-123 -252 -169 -52 -43 -50 -43 -118 12 -208 171 -486 287 -780 326 -30 4
-824 8 -1765 9 -1880 2 -1762 -2 -1939 62 -250 90 -454 272 -575 513 -35 69
-66 149 -75 196 -3 10 -10 42 -17 69 -10 39 -13 384 -15 1595 -1 850 0 1547 1
1550 2 3 2356 5 5232 5 l5228 0 0 -1540z"/>
<path d="M8029 6605 c0 -65 -1 -1488 0 -1516 l1 -27 154 1 154 1 0 126 0 127
72 92 72 91 27 -42 c15 -24 74 -119 131 -213 57 -93 108 -173 113 -176 5 -4
83 -7 173 -6 l164 0 -26 46 c-15 25 -59 98 -99 162 -39 63 -74 122 -78 130 -4
7 -39 66 -78 129 -39 63 -82 134 -95 157 l-25 41 148 174 c201 236 213 251
213 257 0 5 -328 7 -352 2 -11 -2 -284 -373 -324 -439 -20 -35 -39 -64 -43
-66 -4 -3 -4 30 0 72 11 135 8 902 -4 909 -6 3 -75 7 -154 7 l-143 1 -1 -40z"/>
<path d="M4309 6632 l-27 -3 2 -687 c2 -637 4 -691 21 -736 24 -64 87 -127
145 -145 115 -35 330 -11 344 38 3 9 7 43 11 76 3 33 8 75 12 93 5 32 5 32
-21 22 -43 -16 -119 -21 -148 -9 -52 21 -52 24 -54 704 -1 347 -2 635 -3 640
-1 9 -217 15 -282 7z"/>
<path d="M6194 6622 c-91 -43 -127 -150 -80 -241 57 -109 227 -118 308 -16 33
43 38 138 8 187 -44 76 -154 108 -236 70z"/>
<path d="M9310 6620 c-45 -23 -69 -50 -85 -96 -41 -121 49 -237 180 -230 98 6
162 71 167 169 3 60 -29 116 -85 152 -41 26 -132 28 -177 5z"/>
<path d="M1606 6570 l-39 -5 1 -720 c0 -396 1 -734 1 -751 l1 -31 160 -1 c113
0 160 3 161 12 0 6 1 146 2 311 l2 300 298 1 297 2 0 -313 0 -313 160 0 c114
0 160 3 161 11 0 7 1 346 2 755 l2 742 -42 1 c-56 1 -249 1 -268 0 -13 -1 -15
-41 -15 -296 l0 -295 -25 -1 c-14 0 -135 0 -270 0 -135 0 -258 0 -274 0 l-29
1 1 295 2 295 -25 1 c-175 3 -231 3 -264 -1z"/>
<path d="M3470 6183 c-186 -31 -331 -159 -396 -349 -23 -66 -28 -99 -30 -199
-3 -144 12 -222 61 -322 99 -202 310 -303 558 -269 102 14 208 64 283 133 44
41 94 104 94 119 0 5 -17 18 -37 29 -21 11 -78 43 -128 71 l-90 52 -17 -45
c-22 -58 -52 -91 -107 -115 -82 -37 -199 -16 -253 46 -28 30 -66 115 -73 159
l-6 37 355 0 c226 0 357 4 361 10 13 21 13 202 0 266 -40 187 -172 327 -351
369 -56 13 -168 17 -224 8z m192 -245 c58 -33 105 -113 104 -177 l-1 -24 -208
0 c-114 1 -210 3 -214 6 -11 12 30 106 64 146 66 78 168 97 255 49z"/>
<path d="M5235 6171 c-172 -49 -271 -153 -283 -298 -12 -157 93 -274 302 -338
45 -13 126 -38 181 -54 110 -33 146 -59 147 -108 2 -68 -51 -107 -147 -106
-111 0 -224 75 -255 169 -6 19 -14 34 -17 34 -3 0 -36 -17 -72 -37 -36 -21
-86 -49 -111 -63 -84 -46 -83 -45 -75 -70 4 -13 37 -53 74 -89 113 -113 273
-173 461 -172 89 0 96 1 170 21 111 30 212 109 252 198 32 69 32 200 0 261
-54 101 -159 165 -362 221 -161 44 -201 60 -228 87 -54 54 12 133 111 135 99
1 188 -51 224 -133 9 -22 20 -38 24 -37 27 11 258 144 259 150 0 4 -28 36 -62
72 -73 75 -163 125 -278 155 -95 24 -233 25 -315 2z"/>
<path d="M7268 6175 c-77 -21 -138 -68 -206 -159 l-22 -29 6 74 c7 83 7 80 5
94 -1 7 -55 11 -153 10 l-153 0 0 -550 0 -550 155 0 155 0 0 355 c1 352 1 355
24 403 63 131 248 142 304 19 21 -45 22 -63 24 -372 1 -179 2 -344 3 -366 l0
-42 155 1 156 0 -2 396 c-1 444 -8 499 -72 594 -78 115 -229 164 -379 122z"/>
<path d="M6119 6160 c-1 -7 -1 -1049 0 -1076 1 -20 6 -21 156 -21 l155 -1 0
552 0 552 -155 -1 c-85 0 -155 -2 -156 -5z"/>
<path d="M9242 6150 c-6 -11 -8 -945 -3 -1066 1 -20 6 -21 156 -21 l155 -1 0
552 0 551 -151 0 c-126 1 -152 -2 -157 -15z"/>
</g>
</svg>
